<mxfile host="Electron" modified="2024-02-18T09:36:47.322Z" agent="Mozilla/5.0 (Windows NT 10.0; Win64; x64) AppleWebKit/537.36 (KHTML, like Gecko) draw.io/23.0.2 Chrome/120.0.6099.109 Electron/28.1.0 Safari/537.36" etag="XcKL3lXp2aE0XoJdVpvs" version="23.0.2" type="device">
  <diagram id="R2lEEEUBdFMjLlhIrx00" name="Page-1">
    <mxGraphModel dx="1290" dy="717" grid="1" gridSize="10" guides="1" tooltips="1" connect="1" arrows="1" fold="1" page="1" pageScale="1" pageWidth="1169" pageHeight="827" math="0" shadow="0" extFonts="Permanent Marker^https://fonts.googleapis.com/css?family=Permanent+Marker">
      <root>
        <mxCell id="0" />
        <mxCell id="1" parent="0" />
        <mxCell id="UTMJsMPESid8Jv--px6_-1" value="Обобщённая доменна модель №2" style="swimlane;whiteSpace=wrap;html=1;" parent="1" vertex="1">
          <mxGeometry x="37" y="40" width="1100" height="760" as="geometry">
            <mxRectangle x="37" y="40" width="240" height="30" as="alternateBounds" />
          </mxGeometry>
        </mxCell>
        <mxCell id="T9TbePmRz_xjka0sexMA-44" value="" style="edgeStyle=orthogonalEdgeStyle;rounded=0;orthogonalLoop=1;jettySize=auto;html=1;" parent="UTMJsMPESid8Jv--px6_-1" source="D3LYpAvDrQaKQ8nl0NQ5-3" target="T9TbePmRz_xjka0sexMA-16" edge="1">
          <mxGeometry relative="1" as="geometry">
            <Array as="points">
              <mxPoint x="113" y="210" />
              <mxPoint x="13" y="210" />
              <mxPoint x="13" y="165" />
            </Array>
          </mxGeometry>
        </mxCell>
        <mxCell id="D3LYpAvDrQaKQ8nl0NQ5-3" value="Магазин" style="swimlane;fontStyle=0;childLayout=stackLayout;horizontal=1;startSize=30;horizontalStack=0;resizeParent=1;resizeParentMax=0;resizeLast=0;collapsible=1;marginBottom=0;whiteSpace=wrap;html=1;" parent="UTMJsMPESid8Jv--px6_-1" vertex="1">
          <mxGeometry x="43" y="240" width="140" height="120" as="geometry" />
        </mxCell>
        <mxCell id="D3LYpAvDrQaKQ8nl0NQ5-4" value="Item 1" style="text;strokeColor=none;fillColor=none;align=left;verticalAlign=middle;spacingLeft=4;spacingRight=4;overflow=hidden;points=[[0,0.5],[1,0.5]];portConstraint=eastwest;rotatable=0;whiteSpace=wrap;html=1;" parent="D3LYpAvDrQaKQ8nl0NQ5-3" vertex="1">
          <mxGeometry y="30" width="140" height="30" as="geometry" />
        </mxCell>
        <mxCell id="D3LYpAvDrQaKQ8nl0NQ5-5" value="Item 2" style="text;strokeColor=none;fillColor=none;align=left;verticalAlign=middle;spacingLeft=4;spacingRight=4;overflow=hidden;points=[[0,0.5],[1,0.5]];portConstraint=eastwest;rotatable=0;whiteSpace=wrap;html=1;" parent="D3LYpAvDrQaKQ8nl0NQ5-3" vertex="1">
          <mxGeometry y="60" width="140" height="30" as="geometry" />
        </mxCell>
        <mxCell id="D3LYpAvDrQaKQ8nl0NQ5-6" value="Item 3" style="text;strokeColor=none;fillColor=none;align=left;verticalAlign=middle;spacingLeft=4;spacingRight=4;overflow=hidden;points=[[0,0.5],[1,0.5]];portConstraint=eastwest;rotatable=0;whiteSpace=wrap;html=1;" parent="D3LYpAvDrQaKQ8nl0NQ5-3" vertex="1">
          <mxGeometry y="90" width="140" height="30" as="geometry" />
        </mxCell>
        <mxCell id="D3LYpAvDrQaKQ8nl0NQ5-8" value="" style="edgeStyle=orthogonalEdgeStyle;rounded=0;orthogonalLoop=1;jettySize=auto;html=1;exitX=1;exitY=0.5;exitDx=0;exitDy=0;" parent="UTMJsMPESid8Jv--px6_-1" source="D3LYpAvDrQaKQ8nl0NQ5-6" target="D3LYpAvDrQaKQ8nl0NQ5-39" edge="1">
          <mxGeometry relative="1" as="geometry">
            <Array as="points">
              <mxPoint x="200" y="345" />
              <mxPoint x="200" y="460" />
            </Array>
          </mxGeometry>
        </mxCell>
        <mxCell id="D3LYpAvDrQaKQ8nl0NQ5-9" value="Заявка на смены" style="swimlane;fontStyle=0;childLayout=stackLayout;horizontal=1;startSize=30;horizontalStack=0;resizeParent=1;resizeParentMax=0;resizeLast=0;collapsible=1;marginBottom=0;whiteSpace=wrap;html=1;" parent="UTMJsMPESid8Jv--px6_-1" vertex="1">
          <mxGeometry x="239" y="240" width="140" height="120" as="geometry" />
        </mxCell>
        <mxCell id="D3LYpAvDrQaKQ8nl0NQ5-10" value="Item 1" style="text;strokeColor=none;fillColor=none;align=left;verticalAlign=middle;spacingLeft=4;spacingRight=4;overflow=hidden;points=[[0,0.5],[1,0.5]];portConstraint=eastwest;rotatable=0;whiteSpace=wrap;html=1;" parent="D3LYpAvDrQaKQ8nl0NQ5-9" vertex="1">
          <mxGeometry y="30" width="140" height="30" as="geometry" />
        </mxCell>
        <mxCell id="D3LYpAvDrQaKQ8nl0NQ5-11" value="Item 2" style="text;strokeColor=none;fillColor=none;align=left;verticalAlign=middle;spacingLeft=4;spacingRight=4;overflow=hidden;points=[[0,0.5],[1,0.5]];portConstraint=eastwest;rotatable=0;whiteSpace=wrap;html=1;" parent="D3LYpAvDrQaKQ8nl0NQ5-9" vertex="1">
          <mxGeometry y="60" width="140" height="30" as="geometry" />
        </mxCell>
        <mxCell id="D3LYpAvDrQaKQ8nl0NQ5-12" value="Item 3" style="text;strokeColor=none;fillColor=none;align=left;verticalAlign=middle;spacingLeft=4;spacingRight=4;overflow=hidden;points=[[0,0.5],[1,0.5]];portConstraint=eastwest;rotatable=0;whiteSpace=wrap;html=1;" parent="D3LYpAvDrQaKQ8nl0NQ5-9" vertex="1">
          <mxGeometry y="90" width="140" height="30" as="geometry" />
        </mxCell>
        <mxCell id="D3LYpAvDrQaKQ8nl0NQ5-1" value="" style="edgeStyle=orthogonalEdgeStyle;rounded=0;orthogonalLoop=1;jettySize=auto;html=1;" parent="UTMJsMPESid8Jv--px6_-1" source="D3LYpAvDrQaKQ8nl0NQ5-3" target="D3LYpAvDrQaKQ8nl0NQ5-9" edge="1">
          <mxGeometry relative="1" as="geometry" />
        </mxCell>
        <mxCell id="D3LYpAvDrQaKQ8nl0NQ5-13" value="Банк Смен (БС)" style="swimlane;fontStyle=0;childLayout=stackLayout;horizontal=1;startSize=30;horizontalStack=0;resizeParent=1;resizeParentMax=0;resizeLast=0;collapsible=1;marginBottom=0;whiteSpace=wrap;html=1;" parent="UTMJsMPESid8Jv--px6_-1" vertex="1">
          <mxGeometry x="460" y="225" width="140" height="120" as="geometry" />
        </mxCell>
        <mxCell id="D3LYpAvDrQaKQ8nl0NQ5-14" value="Item 1" style="text;strokeColor=none;fillColor=none;align=left;verticalAlign=middle;spacingLeft=4;spacingRight=4;overflow=hidden;points=[[0,0.5],[1,0.5]];portConstraint=eastwest;rotatable=0;whiteSpace=wrap;html=1;" parent="D3LYpAvDrQaKQ8nl0NQ5-13" vertex="1">
          <mxGeometry y="30" width="140" height="30" as="geometry" />
        </mxCell>
        <mxCell id="D3LYpAvDrQaKQ8nl0NQ5-15" value="Item 2" style="text;strokeColor=none;fillColor=none;align=left;verticalAlign=middle;spacingLeft=4;spacingRight=4;overflow=hidden;points=[[0,0.5],[1,0.5]];portConstraint=eastwest;rotatable=0;whiteSpace=wrap;html=1;" parent="D3LYpAvDrQaKQ8nl0NQ5-13" vertex="1">
          <mxGeometry y="60" width="140" height="30" as="geometry" />
        </mxCell>
        <mxCell id="D3LYpAvDrQaKQ8nl0NQ5-16" value="Item 3" style="text;strokeColor=none;fillColor=none;align=left;verticalAlign=middle;spacingLeft=4;spacingRight=4;overflow=hidden;points=[[0,0.5],[1,0.5]];portConstraint=eastwest;rotatable=0;whiteSpace=wrap;html=1;" parent="D3LYpAvDrQaKQ8nl0NQ5-13" vertex="1">
          <mxGeometry y="90" width="140" height="30" as="geometry" />
        </mxCell>
        <mxCell id="D3LYpAvDrQaKQ8nl0NQ5-7" value="" style="edgeStyle=orthogonalEdgeStyle;rounded=0;orthogonalLoop=1;jettySize=auto;html=1;entryX=0;entryY=0.5;entryDx=0;entryDy=0;" parent="UTMJsMPESid8Jv--px6_-1" source="D3LYpAvDrQaKQ8nl0NQ5-9" target="D3LYpAvDrQaKQ8nl0NQ5-15" edge="1">
          <mxGeometry relative="1" as="geometry" />
        </mxCell>
        <mxCell id="D3LYpAvDrQaKQ8nl0NQ5-19" value="Агентство" style="swimlane;fontStyle=0;childLayout=stackLayout;horizontal=1;startSize=30;horizontalStack=0;resizeParent=1;resizeParentMax=0;resizeLast=0;collapsible=1;marginBottom=0;whiteSpace=wrap;html=1;" parent="UTMJsMPESid8Jv--px6_-1" vertex="1">
          <mxGeometry x="895" y="160" width="140" height="120" as="geometry" />
        </mxCell>
        <mxCell id="D3LYpAvDrQaKQ8nl0NQ5-20" value="Item 1" style="text;strokeColor=none;fillColor=none;align=left;verticalAlign=middle;spacingLeft=4;spacingRight=4;overflow=hidden;points=[[0,0.5],[1,0.5]];portConstraint=eastwest;rotatable=0;whiteSpace=wrap;html=1;" parent="D3LYpAvDrQaKQ8nl0NQ5-19" vertex="1">
          <mxGeometry y="30" width="140" height="30" as="geometry" />
        </mxCell>
        <mxCell id="D3LYpAvDrQaKQ8nl0NQ5-21" value="Item 2" style="text;strokeColor=none;fillColor=none;align=left;verticalAlign=middle;spacingLeft=4;spacingRight=4;overflow=hidden;points=[[0,0.5],[1,0.5]];portConstraint=eastwest;rotatable=0;whiteSpace=wrap;html=1;" parent="D3LYpAvDrQaKQ8nl0NQ5-19" vertex="1">
          <mxGeometry y="60" width="140" height="30" as="geometry" />
        </mxCell>
        <mxCell id="D3LYpAvDrQaKQ8nl0NQ5-22" value="Item 3" style="text;strokeColor=none;fillColor=none;align=left;verticalAlign=middle;spacingLeft=4;spacingRight=4;overflow=hidden;points=[[0,0.5],[1,0.5]];portConstraint=eastwest;rotatable=0;whiteSpace=wrap;html=1;" parent="D3LYpAvDrQaKQ8nl0NQ5-19" vertex="1">
          <mxGeometry y="90" width="140" height="30" as="geometry" />
        </mxCell>
        <mxCell id="D3LYpAvDrQaKQ8nl0NQ5-23" value="" style="edgeStyle=orthogonalEdgeStyle;rounded=0;orthogonalLoop=1;jettySize=auto;html=1;entryX=1;entryY=0.5;entryDx=0;entryDy=0;" parent="UTMJsMPESid8Jv--px6_-1" source="D3LYpAvDrQaKQ8nl0NQ5-24" target="D3LYpAvDrQaKQ8nl0NQ5-15" edge="1">
          <mxGeometry relative="1" as="geometry">
            <mxPoint x="575" y="300" as="targetPoint" />
            <Array as="points">
              <mxPoint x="620" y="300" />
              <mxPoint x="620" y="300" />
            </Array>
          </mxGeometry>
        </mxCell>
        <mxCell id="D3LYpAvDrQaKQ8nl0NQ5-24" value="СЗ" style="swimlane;fontStyle=0;childLayout=stackLayout;horizontal=1;startSize=30;horizontalStack=0;resizeParent=1;resizeParentMax=0;resizeLast=0;collapsible=1;marginBottom=0;whiteSpace=wrap;html=1;" parent="UTMJsMPESid8Jv--px6_-1" vertex="1">
          <mxGeometry x="655" y="240" width="140" height="120" as="geometry" />
        </mxCell>
        <mxCell id="D3LYpAvDrQaKQ8nl0NQ5-25" value="Item 1" style="text;strokeColor=none;fillColor=none;align=left;verticalAlign=middle;spacingLeft=4;spacingRight=4;overflow=hidden;points=[[0,0.5],[1,0.5]];portConstraint=eastwest;rotatable=0;whiteSpace=wrap;html=1;" parent="D3LYpAvDrQaKQ8nl0NQ5-24" vertex="1">
          <mxGeometry y="30" width="140" height="30" as="geometry" />
        </mxCell>
        <mxCell id="D3LYpAvDrQaKQ8nl0NQ5-26" value="Item 2" style="text;strokeColor=none;fillColor=none;align=left;verticalAlign=middle;spacingLeft=4;spacingRight=4;overflow=hidden;points=[[0,0.5],[1,0.5]];portConstraint=eastwest;rotatable=0;whiteSpace=wrap;html=1;" parent="D3LYpAvDrQaKQ8nl0NQ5-24" vertex="1">
          <mxGeometry y="60" width="140" height="30" as="geometry" />
        </mxCell>
        <mxCell id="D3LYpAvDrQaKQ8nl0NQ5-27" value="Item 3" style="text;strokeColor=none;fillColor=none;align=left;verticalAlign=middle;spacingLeft=4;spacingRight=4;overflow=hidden;points=[[0,0.5],[1,0.5]];portConstraint=eastwest;rotatable=0;whiteSpace=wrap;html=1;" parent="D3LYpAvDrQaKQ8nl0NQ5-24" vertex="1">
          <mxGeometry y="90" width="140" height="30" as="geometry" />
        </mxCell>
        <mxCell id="D3LYpAvDrQaKQ8nl0NQ5-28" value="ШС" style="swimlane;fontStyle=0;childLayout=stackLayout;horizontal=1;startSize=30;horizontalStack=0;resizeParent=1;resizeParentMax=0;resizeLast=0;collapsible=1;marginBottom=0;whiteSpace=wrap;html=1;" parent="UTMJsMPESid8Jv--px6_-1" vertex="1">
          <mxGeometry x="655" y="80" width="140" height="120" as="geometry" />
        </mxCell>
        <mxCell id="D3LYpAvDrQaKQ8nl0NQ5-29" value="Item 1" style="text;strokeColor=none;fillColor=none;align=left;verticalAlign=middle;spacingLeft=4;spacingRight=4;overflow=hidden;points=[[0,0.5],[1,0.5]];portConstraint=eastwest;rotatable=0;whiteSpace=wrap;html=1;" parent="D3LYpAvDrQaKQ8nl0NQ5-28" vertex="1">
          <mxGeometry y="30" width="140" height="30" as="geometry" />
        </mxCell>
        <mxCell id="D3LYpAvDrQaKQ8nl0NQ5-30" value="Item 2" style="text;strokeColor=none;fillColor=none;align=left;verticalAlign=middle;spacingLeft=4;spacingRight=4;overflow=hidden;points=[[0,0.5],[1,0.5]];portConstraint=eastwest;rotatable=0;whiteSpace=wrap;html=1;" parent="D3LYpAvDrQaKQ8nl0NQ5-28" vertex="1">
          <mxGeometry y="60" width="140" height="30" as="geometry" />
        </mxCell>
        <mxCell id="D3LYpAvDrQaKQ8nl0NQ5-31" value="Item 3" style="text;strokeColor=none;fillColor=none;align=left;verticalAlign=middle;spacingLeft=4;spacingRight=4;overflow=hidden;points=[[0,0.5],[1,0.5]];portConstraint=eastwest;rotatable=0;whiteSpace=wrap;html=1;" parent="D3LYpAvDrQaKQ8nl0NQ5-28" vertex="1">
          <mxGeometry y="90" width="140" height="30" as="geometry" />
        </mxCell>
        <mxCell id="D3LYpAvDrQaKQ8nl0NQ5-17" value="" style="edgeStyle=orthogonalEdgeStyle;rounded=0;orthogonalLoop=1;jettySize=auto;html=1;" parent="UTMJsMPESid8Jv--px6_-1" source="D3LYpAvDrQaKQ8nl0NQ5-19" target="D3LYpAvDrQaKQ8nl0NQ5-31" edge="1">
          <mxGeometry relative="1" as="geometry" />
        </mxCell>
        <mxCell id="D3LYpAvDrQaKQ8nl0NQ5-32" value="" style="edgeStyle=orthogonalEdgeStyle;rounded=0;orthogonalLoop=1;jettySize=auto;html=1;entryX=1;entryY=0.25;entryDx=0;entryDy=0;exitX=0;exitY=0.5;exitDx=0;exitDy=0;" parent="UTMJsMPESid8Jv--px6_-1" source="D3LYpAvDrQaKQ8nl0NQ5-30" target="D3LYpAvDrQaKQ8nl0NQ5-13" edge="1">
          <mxGeometry relative="1" as="geometry">
            <mxPoint x="745" y="170" as="sourcePoint" />
            <mxPoint x="620" y="270" as="targetPoint" />
            <Array as="points">
              <mxPoint x="621" y="155" />
              <mxPoint x="621" y="255" />
            </Array>
          </mxGeometry>
        </mxCell>
        <mxCell id="D3LYpAvDrQaKQ8nl0NQ5-33" value="" style="edgeStyle=orthogonalEdgeStyle;rounded=0;orthogonalLoop=1;jettySize=auto;html=1;entryX=1;entryY=0.5;entryDx=0;entryDy=0;exitX=0;exitY=0.5;exitDx=0;exitDy=0;" parent="UTMJsMPESid8Jv--px6_-1" source="D3LYpAvDrQaKQ8nl0NQ5-21" target="D3LYpAvDrQaKQ8nl0NQ5-25" edge="1">
          <mxGeometry relative="1" as="geometry">
            <mxPoint x="905" y="230" as="sourcePoint" />
            <mxPoint x="805" y="195" as="targetPoint" />
          </mxGeometry>
        </mxCell>
        <mxCell id="D3LYpAvDrQaKQ8nl0NQ5-34" value="" style="edgeStyle=orthogonalEdgeStyle;rounded=0;orthogonalLoop=1;jettySize=auto;html=1;entryX=1;entryY=0.5;entryDx=0;entryDy=0;" parent="UTMJsMPESid8Jv--px6_-1" source="D3LYpAvDrQaKQ8nl0NQ5-35" target="D3LYpAvDrQaKQ8nl0NQ5-20" edge="1">
          <mxGeometry relative="1" as="geometry">
            <mxPoint x="965" y="280" as="targetPoint" />
            <Array as="points">
              <mxPoint x="1060" y="620" />
              <mxPoint x="1060" y="205" />
            </Array>
          </mxGeometry>
        </mxCell>
        <mxCell id="D3LYpAvDrQaKQ8nl0NQ5-35" value="Оплата" style="swimlane;fontStyle=0;childLayout=stackLayout;horizontal=1;startSize=30;horizontalStack=0;resizeParent=1;resizeParentMax=0;resizeLast=0;collapsible=1;marginBottom=0;whiteSpace=wrap;html=1;" parent="UTMJsMPESid8Jv--px6_-1" vertex="1">
          <mxGeometry x="400" y="560" width="140" height="120" as="geometry" />
        </mxCell>
        <mxCell id="D3LYpAvDrQaKQ8nl0NQ5-36" value="Item 1" style="text;strokeColor=none;fillColor=none;align=left;verticalAlign=middle;spacingLeft=4;spacingRight=4;overflow=hidden;points=[[0,0.5],[1,0.5]];portConstraint=eastwest;rotatable=0;whiteSpace=wrap;html=1;" parent="D3LYpAvDrQaKQ8nl0NQ5-35" vertex="1">
          <mxGeometry y="30" width="140" height="30" as="geometry" />
        </mxCell>
        <mxCell id="D3LYpAvDrQaKQ8nl0NQ5-37" value="Item 2" style="text;strokeColor=none;fillColor=none;align=left;verticalAlign=middle;spacingLeft=4;spacingRight=4;overflow=hidden;points=[[0,0.5],[1,0.5]];portConstraint=eastwest;rotatable=0;whiteSpace=wrap;html=1;" parent="D3LYpAvDrQaKQ8nl0NQ5-35" vertex="1">
          <mxGeometry y="60" width="140" height="30" as="geometry" />
        </mxCell>
        <mxCell id="D3LYpAvDrQaKQ8nl0NQ5-38" value="Item 3" style="text;strokeColor=none;fillColor=none;align=left;verticalAlign=middle;spacingLeft=4;spacingRight=4;overflow=hidden;points=[[0,0.5],[1,0.5]];portConstraint=eastwest;rotatable=0;whiteSpace=wrap;html=1;" parent="D3LYpAvDrQaKQ8nl0NQ5-35" vertex="1">
          <mxGeometry y="90" width="140" height="30" as="geometry" />
        </mxCell>
        <mxCell id="D3LYpAvDrQaKQ8nl0NQ5-39" value="Табели" style="swimlane;fontStyle=0;childLayout=stackLayout;horizontal=1;startSize=30;horizontalStack=0;resizeParent=1;resizeParentMax=0;resizeLast=0;collapsible=1;marginBottom=0;whiteSpace=wrap;html=1;" parent="UTMJsMPESid8Jv--px6_-1" vertex="1">
          <mxGeometry x="239" y="400" width="140" height="120" as="geometry" />
        </mxCell>
        <mxCell id="D3LYpAvDrQaKQ8nl0NQ5-40" value="Item 1" style="text;strokeColor=none;fillColor=none;align=left;verticalAlign=middle;spacingLeft=4;spacingRight=4;overflow=hidden;points=[[0,0.5],[1,0.5]];portConstraint=eastwest;rotatable=0;whiteSpace=wrap;html=1;" parent="D3LYpAvDrQaKQ8nl0NQ5-39" vertex="1">
          <mxGeometry y="30" width="140" height="30" as="geometry" />
        </mxCell>
        <mxCell id="D3LYpAvDrQaKQ8nl0NQ5-41" value="Item 2" style="text;strokeColor=none;fillColor=none;align=left;verticalAlign=middle;spacingLeft=4;spacingRight=4;overflow=hidden;points=[[0,0.5],[1,0.5]];portConstraint=eastwest;rotatable=0;whiteSpace=wrap;html=1;" parent="D3LYpAvDrQaKQ8nl0NQ5-39" vertex="1">
          <mxGeometry y="60" width="140" height="30" as="geometry" />
        </mxCell>
        <mxCell id="D3LYpAvDrQaKQ8nl0NQ5-42" value="Item 3" style="text;strokeColor=none;fillColor=none;align=left;verticalAlign=middle;spacingLeft=4;spacingRight=4;overflow=hidden;points=[[0,0.5],[1,0.5]];portConstraint=eastwest;rotatable=0;whiteSpace=wrap;html=1;" parent="D3LYpAvDrQaKQ8nl0NQ5-39" vertex="1">
          <mxGeometry y="90" width="140" height="30" as="geometry" />
        </mxCell>
        <mxCell id="D3LYpAvDrQaKQ8nl0NQ5-43" value="" style="edgeStyle=orthogonalEdgeStyle;rounded=0;orthogonalLoop=1;jettySize=auto;html=1;entryX=1;entryY=0.5;entryDx=0;entryDy=0;exitX=0;exitY=0.5;exitDx=0;exitDy=0;" parent="UTMJsMPESid8Jv--px6_-1" source="D3LYpAvDrQaKQ8nl0NQ5-16" target="D3LYpAvDrQaKQ8nl0NQ5-40" edge="1">
          <mxGeometry relative="1" as="geometry">
            <mxPoint x="365" y="190" as="sourcePoint" />
            <mxPoint x="425" y="205" as="targetPoint" />
          </mxGeometry>
        </mxCell>
        <mxCell id="D3LYpAvDrQaKQ8nl0NQ5-44" value="" style="edgeStyle=orthogonalEdgeStyle;rounded=0;orthogonalLoop=1;jettySize=auto;html=1;entryX=0;entryY=0.5;entryDx=0;entryDy=0;exitX=1;exitY=0.5;exitDx=0;exitDy=0;" parent="UTMJsMPESid8Jv--px6_-1" source="D3LYpAvDrQaKQ8nl0NQ5-41" target="D3LYpAvDrQaKQ8nl0NQ5-36" edge="1">
          <mxGeometry relative="1" as="geometry">
            <mxPoint x="365" y="190" as="sourcePoint" />
            <mxPoint x="425" y="205" as="targetPoint" />
          </mxGeometry>
        </mxCell>
        <mxCell id="D3LYpAvDrQaKQ8nl0NQ5-2" value="" style="edgeStyle=orthogonalEdgeStyle;rounded=0;orthogonalLoop=1;jettySize=auto;html=1;entryX=0;entryY=0.5;entryDx=0;entryDy=0;" parent="UTMJsMPESid8Jv--px6_-1" source="D3LYpAvDrQaKQ8nl0NQ5-3" target="D3LYpAvDrQaKQ8nl0NQ5-37" edge="1">
          <mxGeometry relative="1" as="geometry">
            <mxPoint x="85" y="320" as="targetPoint" />
          </mxGeometry>
        </mxCell>
        <mxCell id="T9TbePmRz_xjka0sexMA-6" value="" style="edgeStyle=orthogonalEdgeStyle;rounded=0;orthogonalLoop=1;jettySize=auto;html=1;" parent="UTMJsMPESid8Jv--px6_-1" source="T9TbePmRz_xjka0sexMA-1" target="D3LYpAvDrQaKQ8nl0NQ5-27" edge="1">
          <mxGeometry relative="1" as="geometry" />
        </mxCell>
        <mxCell id="T9TbePmRz_xjka0sexMA-7" value="" style="edgeStyle=orthogonalEdgeStyle;rounded=0;orthogonalLoop=1;jettySize=auto;html=1;entryX=1;entryY=0.5;entryDx=0;entryDy=0;" parent="UTMJsMPESid8Jv--px6_-1" source="T9TbePmRz_xjka0sexMA-1" target="D3LYpAvDrQaKQ8nl0NQ5-30" edge="1">
          <mxGeometry relative="1" as="geometry">
            <mxPoint x="965" y="514" as="targetPoint" />
            <Array as="points">
              <mxPoint x="870" y="374" />
              <mxPoint x="870" y="155" />
            </Array>
          </mxGeometry>
        </mxCell>
        <mxCell id="T9TbePmRz_xjka0sexMA-1" value="Оплата" style="swimlane;fontStyle=0;childLayout=stackLayout;horizontal=1;startSize=30;horizontalStack=0;resizeParent=1;resizeParentMax=0;resizeLast=0;collapsible=1;marginBottom=0;whiteSpace=wrap;html=1;" parent="UTMJsMPESid8Jv--px6_-1" vertex="1">
          <mxGeometry x="895" y="314" width="140" height="120" as="geometry" />
        </mxCell>
        <mxCell id="T9TbePmRz_xjka0sexMA-2" value="Item 1" style="text;strokeColor=none;fillColor=none;align=left;verticalAlign=middle;spacingLeft=4;spacingRight=4;overflow=hidden;points=[[0,0.5],[1,0.5]];portConstraint=eastwest;rotatable=0;whiteSpace=wrap;html=1;" parent="T9TbePmRz_xjka0sexMA-1" vertex="1">
          <mxGeometry y="30" width="140" height="30" as="geometry" />
        </mxCell>
        <mxCell id="T9TbePmRz_xjka0sexMA-3" value="Item 2" style="text;strokeColor=none;fillColor=none;align=left;verticalAlign=middle;spacingLeft=4;spacingRight=4;overflow=hidden;points=[[0,0.5],[1,0.5]];portConstraint=eastwest;rotatable=0;whiteSpace=wrap;html=1;" parent="T9TbePmRz_xjka0sexMA-1" vertex="1">
          <mxGeometry y="60" width="140" height="30" as="geometry" />
        </mxCell>
        <mxCell id="T9TbePmRz_xjka0sexMA-4" value="Item 3" style="text;strokeColor=none;fillColor=none;align=left;verticalAlign=middle;spacingLeft=4;spacingRight=4;overflow=hidden;points=[[0,0.5],[1,0.5]];portConstraint=eastwest;rotatable=0;whiteSpace=wrap;html=1;" parent="T9TbePmRz_xjka0sexMA-1" vertex="1">
          <mxGeometry y="90" width="140" height="30" as="geometry" />
        </mxCell>
        <mxCell id="T9TbePmRz_xjka0sexMA-5" value="" style="edgeStyle=orthogonalEdgeStyle;rounded=0;orthogonalLoop=1;jettySize=auto;html=1;exitX=0.507;exitY=0.973;exitDx=0;exitDy=0;exitPerimeter=0;" parent="UTMJsMPESid8Jv--px6_-1" source="D3LYpAvDrQaKQ8nl0NQ5-22" target="T9TbePmRz_xjka0sexMA-1" edge="1">
          <mxGeometry relative="1" as="geometry">
            <Array as="points">
              <mxPoint x="966" y="390" />
            </Array>
          </mxGeometry>
        </mxCell>
        <mxCell id="T9TbePmRz_xjka0sexMA-19" value="" style="edgeStyle=orthogonalEdgeStyle;rounded=0;orthogonalLoop=1;jettySize=auto;html=1;entryX=0;entryY=0.5;entryDx=0;entryDy=0;" parent="UTMJsMPESid8Jv--px6_-1" source="T9TbePmRz_xjka0sexMA-8" target="D3LYpAvDrQaKQ8nl0NQ5-14" edge="1">
          <mxGeometry relative="1" as="geometry">
            <mxPoint x="459" y="130" as="targetPoint" />
            <Array as="points">
              <mxPoint x="420" y="130" />
              <mxPoint x="420" y="270" />
            </Array>
          </mxGeometry>
        </mxCell>
        <mxCell id="T9TbePmRz_xjka0sexMA-8" value="ШС" style="swimlane;fontStyle=0;childLayout=stackLayout;horizontal=1;startSize=30;horizontalStack=0;resizeParent=1;resizeParentMax=0;resizeLast=0;collapsible=1;marginBottom=0;whiteSpace=wrap;html=1;" parent="UTMJsMPESid8Jv--px6_-1" vertex="1">
          <mxGeometry x="239" y="70" width="140" height="120" as="geometry" />
        </mxCell>
        <mxCell id="T9TbePmRz_xjka0sexMA-9" value="Item 1" style="text;strokeColor=none;fillColor=none;align=left;verticalAlign=middle;spacingLeft=4;spacingRight=4;overflow=hidden;points=[[0,0.5],[1,0.5]];portConstraint=eastwest;rotatable=0;whiteSpace=wrap;html=1;" parent="T9TbePmRz_xjka0sexMA-8" vertex="1">
          <mxGeometry y="30" width="140" height="30" as="geometry" />
        </mxCell>
        <mxCell id="T9TbePmRz_xjka0sexMA-10" value="Item 2" style="text;strokeColor=none;fillColor=none;align=left;verticalAlign=middle;spacingLeft=4;spacingRight=4;overflow=hidden;points=[[0,0.5],[1,0.5]];portConstraint=eastwest;rotatable=0;whiteSpace=wrap;html=1;" parent="T9TbePmRz_xjka0sexMA-8" vertex="1">
          <mxGeometry y="60" width="140" height="30" as="geometry" />
        </mxCell>
        <mxCell id="T9TbePmRz_xjka0sexMA-11" value="Item 3" style="text;strokeColor=none;fillColor=none;align=left;verticalAlign=middle;spacingLeft=4;spacingRight=4;overflow=hidden;points=[[0,0.5],[1,0.5]];portConstraint=eastwest;rotatable=0;whiteSpace=wrap;html=1;" parent="T9TbePmRz_xjka0sexMA-8" vertex="1">
          <mxGeometry y="90" width="140" height="30" as="geometry" />
        </mxCell>
        <mxCell id="T9TbePmRz_xjka0sexMA-12" value="" style="edgeStyle=orthogonalEdgeStyle;rounded=0;orthogonalLoop=1;jettySize=auto;html=1;entryX=0;entryY=0.5;entryDx=0;entryDy=0;" parent="UTMJsMPESid8Jv--px6_-1" source="D3LYpAvDrQaKQ8nl0NQ5-4" target="T9TbePmRz_xjka0sexMA-11" edge="1">
          <mxGeometry relative="1" as="geometry" />
        </mxCell>
        <mxCell id="T9TbePmRz_xjka0sexMA-13" value="Оплата" style="swimlane;fontStyle=0;childLayout=stackLayout;horizontal=1;startSize=30;horizontalStack=0;resizeParent=1;resizeParentMax=0;resizeLast=0;collapsible=1;marginBottom=0;whiteSpace=wrap;html=1;" parent="UTMJsMPESid8Jv--px6_-1" vertex="1">
          <mxGeometry x="43" y="60" width="140" height="120" as="geometry" />
        </mxCell>
        <mxCell id="T9TbePmRz_xjka0sexMA-14" value="Item 1" style="text;strokeColor=none;fillColor=none;align=left;verticalAlign=middle;spacingLeft=4;spacingRight=4;overflow=hidden;points=[[0,0.5],[1,0.5]];portConstraint=eastwest;rotatable=0;whiteSpace=wrap;html=1;" parent="T9TbePmRz_xjka0sexMA-13" vertex="1">
          <mxGeometry y="30" width="140" height="30" as="geometry" />
        </mxCell>
        <mxCell id="T9TbePmRz_xjka0sexMA-15" value="Item 2" style="text;strokeColor=none;fillColor=none;align=left;verticalAlign=middle;spacingLeft=4;spacingRight=4;overflow=hidden;points=[[0,0.5],[1,0.5]];portConstraint=eastwest;rotatable=0;whiteSpace=wrap;html=1;" parent="T9TbePmRz_xjka0sexMA-13" vertex="1">
          <mxGeometry y="60" width="140" height="30" as="geometry" />
        </mxCell>
        <mxCell id="T9TbePmRz_xjka0sexMA-16" value="Item 3" style="text;strokeColor=none;fillColor=none;align=left;verticalAlign=middle;spacingLeft=4;spacingRight=4;overflow=hidden;points=[[0,0.5],[1,0.5]];portConstraint=eastwest;rotatable=0;whiteSpace=wrap;html=1;" parent="T9TbePmRz_xjka0sexMA-13" vertex="1">
          <mxGeometry y="90" width="140" height="30" as="geometry" />
        </mxCell>
        <mxCell id="T9TbePmRz_xjka0sexMA-17" value="" style="edgeStyle=orthogonalEdgeStyle;rounded=0;orthogonalLoop=1;jettySize=auto;html=1;" parent="UTMJsMPESid8Jv--px6_-1" source="T9TbePmRz_xjka0sexMA-14" target="T9TbePmRz_xjka0sexMA-9" edge="1">
          <mxGeometry relative="1" as="geometry" />
        </mxCell>
      </root>
    </mxGraphModel>
  </diagram>
</mxfile>
